<svg width="14" height="14" viewBox="0 0 14 14" fill="none" xmlns="http://www.w3.org/2000/svg">
<g>
<path d="M0 5.90625C0 5.061 0.686 4.375 1.53125 4.375H2.84375C3.0178 4.375 3.18472 4.44414 3.30779 4.56721C3.43086 4.69028 3.5 4.8572 3.5 5.03125C3.5 5.2053 3.43086 5.37222 3.30779 5.49529C3.18472 5.61836 3.0178 5.6875 2.84375 5.6875H1.53125C1.47323 5.6875 1.41759 5.71055 1.37657 5.75157C1.33555 5.79259 1.3125 5.84823 1.3125 5.90625V12.4688C1.3125 12.5895 1.4105 12.6875 1.53125 12.6875H8.09375C8.15177 12.6875 8.20741 12.6645 8.24843 12.6234C8.28945 12.5824 8.3125 12.5268 8.3125 12.4688V11.1562C8.3125 10.9822 8.38164 10.8153 8.50471 10.6922C8.62778 10.5691 8.7947 10.5 8.96875 10.5C9.1428 10.5 9.30972 10.5691 9.43279 10.6922C9.55586 10.8153 9.625 10.9822 9.625 11.1562V12.4688C9.625 12.8749 9.46367 13.2643 9.17651 13.5515C8.88934 13.8387 8.49986 14 8.09375 14H1.53125C1.12514 14 0.735658 13.8387 0.448493 13.5515C0.161328 13.2643 0 12.8749 0 12.4688L0 5.90625Z" fill="currentColor"/>
<path d="M4.375 1.53125C4.375 0.686 5.061 0 5.90625 0H12.4688C13.314 0 14 0.686 14 1.53125V8.09375C14 8.49986 13.8387 8.88934 13.5515 9.17651C13.2643 9.46367 12.8749 9.625 12.4688 9.625H5.90625C5.50014 9.625 5.11066 9.46367 4.82349 9.17651C4.53633 8.88934 4.375 8.49986 4.375 8.09375V1.53125ZM5.90625 1.3125C5.84823 1.3125 5.79259 1.33555 5.75157 1.37657C5.71055 1.41759 5.6875 1.47323 5.6875 1.53125V8.09375C5.6875 8.2145 5.7855 8.3125 5.90625 8.3125H12.4688C12.5268 8.3125 12.5824 8.28945 12.6234 8.24843C12.6645 8.20741 12.6875 8.15177 12.6875 8.09375V1.53125C12.6875 1.47323 12.6645 1.41759 12.6234 1.37657C12.5824 1.33555 12.5268 1.3125 12.4688 1.3125H5.90625Z" fill="currentColor"/>
</g>
</svg>
