     <svg
          width="8"
          height="11"
          viewBox="0 0 8 11"
          fill="none"
          xmlns="http://www.w3.org/2000/svg"
        >
          <path
            d="M8 5.68627V10.0784C8 10.5882 7.54067 11 7.00478 11H0.995215C0.440191 11 0 10.5686 0 10.0784V5.68627C0 5.17647 0.440191 4.7451 0.995215 4.7451C1.09035 4.7451 1.16746 4.66798 1.16746 4.57285V2.90196C1.16746 1.29412 2.43062 0 3.98086 0C5.55024 0 6.8134 1.29412 6.8134 2.90196V4.55371C6.8134 4.65941 6.89908 4.7451 7.00478 4.7451C7.54067 4.7451 8 5.15686 8 5.68627ZM2.33716 3.11732C2.34653 4.01904 3.08017 4.7451 3.98194 4.7451C4.89037 4.7451 5.62679 4.00867 5.62679 3.10024V2.90196C5.62679 1.96078 4.89952 1.21569 3.98086 1.21569C3.10048 1.21569 2.33493 1.96078 2.33493 2.90196L2.33716 3.11732Z"
            fill="white"
            fillOpacity="0.4"
          />
        </svg>